{
	"asset":{
		"generator":"Khronos glTF Blender I/O v4.1.62",
		"version":"2.0"
	},
	"scene":0,
	"scenes":[
		{
			"name":"Scene",
			"nodes":[
				0
			]
		}
	],
	"nodes":[
		{
			"mesh":0,
			"name":"Ticket",
			"rotation":[
				0.6400852203369141,
				0.6400852203369141,
				-0.30048447847366333,
				0.30048444867134094
			],
			"scale":[
				12.204185485839844,
				12.20418930053711,
				12.20418930053711
			],
			"translation":[
				0,
				28.31765365600586,
				0
			]
		}
	],
	"materials":[
		{
			"doubleSided":true,
			"name":"pxrUsdPreviewSurface2SG",
			"normalTexture":{
				"index":0
			},
			"occlusionTexture":{
				"index":1
			},
			"pbrMetallicRoughness":{
				"baseColorTexture":{
					"index":2
				},
				"metallicFactor":0,
				"metallicRoughnessTexture":{
					"index":1
				}
			}
		}
	],
	"meshes":[
		{
			"name":"ticket_admission_base_realistic_lod0",
			"primitives":[
				{
					"attributes":{
						"POSITION":0,
						"NORMAL":1,
						"TEXCOORD_0":2,
						"TEXCOORD_1":3,
						"TEXCOORD_2":4,
						"TEXCOORD_3":5
					},
					"indices":6,
					"material":0
				}
			]
		}
	],
	"textures":[
		{
			"sampler":0,
			"source":0
		},
		{
			"sampler":0,
			"source":1
		},
		{
			"sampler":0,
			"source":2
		}
	],
	"images":[
		{
			"mimeType":"image/png",
			"name":"pxrUsdPreviewSurface2SG_normal",
			"uri":"pxrUsdPreviewSurface2SG_normal.png"
		},
		{
			"mimeType":"image/png",
			"name":"pxrUsdPreviewSurface2SG_metallicRoughness",
			"uri":"pxrUsdPreviewSurface2SG_metallicRoughness.png"
		},
		{
			"mimeType":"image/png",
			"name":"pxrUsdPreviewSurface2SG_baseColor",
			"uri":"pxrUsdPreviewSurface2SG_baseColor.png"
		}
	],
	"accessors":[
		{
			"bufferView":0,
			"componentType":5126,
			"count":2950,
			"max":[
				2.5,
				0.17665356397628784,
				1.2699999809265137
			],
			"min":[
				-2.5,
				-0.14673519134521484,
				-1.2699999809265137
			],
			"type":"VEC3"
		},
		{
			"bufferView":1,
			"componentType":5126,
			"count":2950,
			"type":"VEC3"
		},
		{
			"bufferView":2,
			"componentType":5126,
			"count":2950,
			"type":"VEC2"
		},
		{
			"bufferView":3,
			"componentType":5126,
			"count":2950,
			"type":"VEC2"
		},
		{
			"bufferView":4,
			"componentType":5126,
			"count":2950,
			"type":"VEC2"
		},
		{
			"bufferView":5,
			"componentType":5126,
			"count":2950,
			"type":"VEC2"
		},
		{
			"bufferView":6,
			"componentType":5123,
			"count":10068,
			"type":"SCALAR"
		}
	],
	"bufferViews":[
		{
			"buffer":0,
			"byteLength":35400,
			"byteOffset":0,
			"target":34962
		},
		{
			"buffer":0,
			"byteLength":35400,
			"byteOffset":35400,
			"target":34962
		},
		{
			"buffer":0,
			"byteLength":23600,
			"byteOffset":70800,
			"target":34962
		},
		{
			"buffer":0,
			"byteLength":23600,
			"byteOffset":94400,
			"target":34962
		},
		{
			"buffer":0,
			"byteLength":23600,
			"byteOffset":118000,
			"target":34962
		},
		{
			"buffer":0,
			"byteLength":23600,
			"byteOffset":141600,
			"target":34962
		},
		{
			"buffer":0,
			"byteLength":20136,
			"byteOffset":165200,
			"target":34963
		}
	],
	"samplers":[
		{
			"magFilter":9729,
			"minFilter":9987
		}
	],
	"buffers":[
		{
			"byteLength":185336,
			"uri":"ticket.bin"
		}
	]
}
