{
	"asset":{
		"generator":"Khronos glTF Blender I/O v4.1.62",
		"version":"2.0"
	},
	"scene":0,
	"scenes":[
		{
			"name":"Scene",
			"nodes":[
				0
			]
		}
	],
	"nodes":[
		{
			"mesh":0,
			"name":"Circle.001",
			"rotation":[
				0,
				0,
				-0.7071068286895752,
				0.7071068286895752
			],
			"scale":[
				0.42803269624710083,
				0.42803269624710083,
				0.42803269624710083
			],
			"translation":[
				0,
				0.010938307270407677,
				-1.2414979934692383
			]
		}
	],
	"materials":[
		{
			"doubleSided":true,
			"name":"Material.005",
			"pbrMetallicRoughness":{
				"baseColorFactor":[
					0.8006705641746521,
					0,
					0.38985228538513184,
					1
				],
				"metallicFactor":0,
				"roughnessFactor":0.5
			}
		},
		{
			"doubleSided":true,
			"name":"Material.004",
			"pbrMetallicRoughness":{
				"baseColorFactor":[
					0,
					0.40234556794166565,
					0.8003851175308228,
					1
				],
				"metallicFactor":0,
				"roughnessFactor":0.5
			}
		}
	],
	"meshes":[
		{
			"name":"Circle.001",
			"primitives":[
				{
					"attributes":{
						"POSITION":0,
						"NORMAL":1,
						"TEXCOORD_0":2
					},
					"indices":3,
					"material":0
				},
				{
					"attributes":{
						"POSITION":4,
						"NORMAL":5,
						"TEXCOORD_0":6
					},
					"indices":7,
					"material":1
				}
			]
		}
	],
	"accessors":[
		{
			"bufferView":0,
			"componentType":5126,
			"count":362,
			"max":[
				2.909294843673706,
				1.6080751663594128e-07,
				1.8056104183197021
			],
			"min":[
				-2.5872836112976074,
				-0.23837162554264069,
				-0.9564074277877808
			],
			"type":"VEC3"
		},
		{
			"bufferView":1,
			"componentType":5126,
			"count":362,
			"type":"VEC3"
		},
		{
			"bufferView":2,
			"componentType":5126,
			"count":362,
			"type":"VEC2"
		},
		{
			"bufferView":3,
			"componentType":5123,
			"count":720,
			"type":"SCALAR"
		},
		{
			"bufferView":4,
			"componentType":5126,
			"count":368,
			"max":[
				2.9200611114501953,
				1.588781941563866e-07,
				4.454768180847168
			],
			"min":[
				-2.5617287158966064,
				-0.23837162554264069,
				2.1857714653015137
			],
			"type":"VEC3"
		},
		{
			"bufferView":5,
			"componentType":5126,
			"count":368,
			"type":"VEC3"
		},
		{
			"bufferView":6,
			"componentType":5126,
			"count":368,
			"type":"VEC2"
		},
		{
			"bufferView":7,
			"componentType":5123,
			"count":744,
			"type":"SCALAR"
		}
	],
	"bufferViews":[
		{
			"buffer":0,
			"byteLength":4344,
			"byteOffset":0,
			"target":34962
		},
		{
			"buffer":0,
			"byteLength":4344,
			"byteOffset":4344,
			"target":34962
		},
		{
			"buffer":0,
			"byteLength":2896,
			"byteOffset":8688,
			"target":34962
		},
		{
			"buffer":0,
			"byteLength":1440,
			"byteOffset":11584,
			"target":34963
		},
		{
			"buffer":0,
			"byteLength":4416,
			"byteOffset":13024,
			"target":34962
		},
		{
			"buffer":0,
			"byteLength":4416,
			"byteOffset":17440,
			"target":34962
		},
		{
			"buffer":0,
			"byteLength":2944,
			"byteOffset":21856,
			"target":34962
		},
		{
			"buffer":0,
			"byteLength":1488,
			"byteOffset":24800,
			"target":34963
		}
	],
	"buffers":[
		{
			"byteLength":26288,
			"uri":"washroom1.bin"
		}
	]
}
