{
	"asset":{
		"generator":"Khronos glTF Blender I/O v4.1.62",
		"version":"2.0"
	},
	"scene":0,
	"scenes":[
		{
			"name":"Scene",
			"nodes":[
				0,
				1
			]
		}
	],
	"nodes":[
		{
			"mesh":0,
			"name":"Circle.001",
			"rotation":[
				0,
				0,
				-0.7071068286895752,
				0.7071068286895752
			],
			"scale":[
				0.5942666530609131,
				0.5942666530609131,
				0.5942666530609131
			],
			"translation":[
				0.0410359650850296,
				5.399193286895752,
				-1.1254810094833374
			]
		},
		{
			"mesh":1,
			"name":"Cube",
			"scale":[
				1.6674458980560303,
				1.6674458980560303,
				1.6674458980560303
			]
		}
	],
	"materials":[
		{
			"doubleSided":true,
			"name":"Material.005",
			"pbrMetallicRoughness":{
				"baseColorFactor":[
					0.8006705641746521,
					0,
					0.38985228538513184,
					1
				],
				"metallicFactor":0,
				"roughnessFactor":0.5
			}
		},
		{
			"doubleSided":true,
			"name":"Material.004",
			"pbrMetallicRoughness":{
				"baseColorFactor":[
					0,
					0.40234556794166565,
					0.8003851175308228,
					1
				],
				"metallicFactor":0,
				"roughnessFactor":0.5
			}
		},
		{
			"doubleSided":true,
			"name":"Material.006",
			"pbrMetallicRoughness":{
				"baseColorFactor":[
					0.013483228161931038,
					0.8026700019836426,
					0,
					1
				],
				"metallicFactor":0,
				"roughnessFactor":0.5
			}
		},
		{
			"doubleSided":true,
			"name":"Material.007",
			"pbrMetallicRoughness":{
				"baseColorFactor":[
					0.07481459528207779,
					0.005146938841789961,
					0.0031051035039126873,
					1
				],
				"metallicFactor":0,
				"roughnessFactor":0.5
			}
		}
	],
	"meshes":[
		{
			"name":"Circle.001",
			"primitives":[
				{
					"attributes":{
						"POSITION":0,
						"NORMAL":1,
						"TEXCOORD_0":2
					},
					"indices":3,
					"material":0
				},
				{
					"attributes":{
						"POSITION":4,
						"NORMAL":5,
						"TEXCOORD_0":6
					},
					"indices":7,
					"material":1
				}
			]
		},
		{
			"name":"Cube.001",
			"primitives":[
				{
					"attributes":{
						"POSITION":8,
						"NORMAL":9,
						"TEXCOORD_0":10
					},
					"indices":11,
					"material":2
				},
				{
					"attributes":{
						"POSITION":12,
						"NORMAL":13,
						"TEXCOORD_0":14
					},
					"indices":15,
					"material":3
				}
			]
		}
	],
	"accessors":[
		{
			"bufferView":0,
			"componentType":5126,
			"count":362,
			"max":[
				2.909295082092285,
				0.18607661128044128,
				1.8056104183197021
			],
			"min":[
				-2.5872836112976074,
				-0.424448162317276,
				-0.9564073085784912
			],
			"type":"VEC3"
		},
		{
			"bufferView":1,
			"componentType":5126,
			"count":362,
			"type":"VEC3"
		},
		{
			"bufferView":2,
			"componentType":5126,
			"count":362,
			"type":"VEC2"
		},
		{
			"bufferView":3,
			"componentType":5123,
			"count":720,
			"type":"SCALAR"
		},
		{
			"bufferView":4,
			"componentType":5126,
			"count":368,
			"max":[
				2.9200611114501953,
				0.18607661128044128,
				4.454768180847168
			],
			"min":[
				-2.5617287158966064,
				-0.424448162317276,
				2.1857714653015137
			],
			"type":"VEC3"
		},
		{
			"bufferView":5,
			"componentType":5126,
			"count":368,
			"type":"VEC3"
		},
		{
			"bufferView":6,
			"componentType":5126,
			"count":368,
			"type":"VEC2"
		},
		{
			"bufferView":7,
			"componentType":5123,
			"count":744,
			"type":"SCALAR"
		},
		{
			"bufferView":8,
			"componentType":5126,
			"count":20,
			"max":[
				1,
				2,
				1
			],
			"min":[
				-1,
				0,
				-1
			],
			"type":"VEC3"
		},
		{
			"bufferView":9,
			"componentType":5126,
			"count":20,
			"type":"VEC3"
		},
		{
			"bufferView":10,
			"componentType":5126,
			"count":20,
			"type":"VEC2"
		},
		{
			"bufferView":11,
			"componentType":5123,
			"count":30,
			"type":"SCALAR"
		},
		{
			"bufferView":12,
			"componentType":5126,
			"count":62,
			"max":[
				1.3391278982162476,
				2.625197172164917,
				1.3391278982162476
			],
			"min":[
				-1.3391278982162476,
				1.9999998807907104,
				-1.3391278982162476
			],
			"type":"VEC3"
		},
		{
			"bufferView":13,
			"componentType":5126,
			"count":62,
			"type":"VEC3"
		},
		{
			"bufferView":14,
			"componentType":5126,
			"count":62,
			"type":"VEC2"
		},
		{
			"bufferView":15,
			"componentType":5123,
			"count":102,
			"type":"SCALAR"
		}
	],
	"bufferViews":[
		{
			"buffer":0,
			"byteLength":4344,
			"byteOffset":0,
			"target":34962
		},
		{
			"buffer":0,
			"byteLength":4344,
			"byteOffset":4344,
			"target":34962
		},
		{
			"buffer":0,
			"byteLength":2896,
			"byteOffset":8688,
			"target":34962
		},
		{
			"buffer":0,
			"byteLength":1440,
			"byteOffset":11584,
			"target":34963
		},
		{
			"buffer":0,
			"byteLength":4416,
			"byteOffset":13024,
			"target":34962
		},
		{
			"buffer":0,
			"byteLength":4416,
			"byteOffset":17440,
			"target":34962
		},
		{
			"buffer":0,
			"byteLength":2944,
			"byteOffset":21856,
			"target":34962
		},
		{
			"buffer":0,
			"byteLength":1488,
			"byteOffset":24800,
			"target":34963
		},
		{
			"buffer":0,
			"byteLength":240,
			"byteOffset":26288,
			"target":34962
		},
		{
			"buffer":0,
			"byteLength":240,
			"byteOffset":26528,
			"target":34962
		},
		{
			"buffer":0,
			"byteLength":160,
			"byteOffset":26768,
			"target":34962
		},
		{
			"buffer":0,
			"byteLength":60,
			"byteOffset":26928,
			"target":34963
		},
		{
			"buffer":0,
			"byteLength":744,
			"byteOffset":26988,
			"target":34962
		},
		{
			"buffer":0,
			"byteLength":744,
			"byteOffset":27732,
			"target":34962
		},
		{
			"buffer":0,
			"byteLength":496,
			"byteOffset":28476,
			"target":34962
		},
		{
			"buffer":0,
			"byteLength":204,
			"byteOffset":28972,
			"target":34963
		}
	],
	"buffers":[
		{
			"byteLength":29176,
			"uri":"washroom2.bin"
		}
	]
}
