{
	"asset":{
		"generator":"Khronos glTF Blender I/O v4.1.62",
		"version":"2.0"
	},
	"scene":0,
	"scenes":[
		{
			"name":"Scene",
			"nodes":[
				0
			]
		}
	],
	"nodes":[
		{
			"mesh":0,
			"name":"Cube.001",
			"rotation":[
				0.7071067690849304,
				0,
				0,
				0.7071068286895752
			],
			"scale":[
				6.56730318069458,
				6.56730318069458,
				6.56730318069458
			],
			"translation":[
				0,
				33.82980728149414,
				0
			]
		}
	],
	"materials":[
		{
			"doubleSided":true,
			"name":"Material.006",
			"pbrMetallicRoughness":{
				"baseColorFactor":[
					0.800315260887146,
					0.7443631887435913,
					0.014311332255601883,
					1
				],
				"metallicFactor":0,
				"roughnessFactor":0.5
			}
		},
		{
			"doubleSided":true,
			"name":"Material.007",
			"pbrMetallicRoughness":{
				"baseColorFactor":[
					0.08915305137634277,
					0.031561125069856644,
					0.028611842542886734,
					1
				],
				"metallicFactor":0,
				"roughnessFactor":0.5
			}
		}
	],
	"meshes":[
		{
			"name":"Cube.003",
			"primitives":[
				{
					"attributes":{
						"POSITION":0,
						"NORMAL":1,
						"TEXCOORD_0":2
					},
					"indices":3,
					"material":0
				},
				{
					"attributes":{
						"POSITION":4,
						"NORMAL":5,
						"TEXCOORD_0":6
					},
					"indices":7,
					"material":1
				}
			]
		}
	],
	"accessors":[
		{
			"bufferView":0,
			"componentType":5126,
			"count":34,
			"max":[
				1.8385955095291138,
				1.8385953903198242,
				5.151247978210449
			],
			"min":[
				-1.8385955095291138,
				-1.8385958671569824,
				1.4740567207336426
			],
			"type":"VEC3"
		},
		{
			"bufferView":1,
			"componentType":5126,
			"count":34,
			"type":"VEC3"
		},
		{
			"bufferView":2,
			"componentType":5126,
			"count":34,
			"type":"VEC2"
		},
		{
			"bufferView":3,
			"componentType":5123,
			"count":78,
			"type":"SCALAR"
		},
		{
			"bufferView":4,
			"componentType":5126,
			"count":52,
			"max":[
				2.331552028656006,
				2.3315517902374268,
				1.4740571975708008
			],
			"min":[
				-2.331552028656006,
				-2.331552267074585,
				0.8616976737976074
			],
			"type":"VEC3"
		},
		{
			"bufferView":5,
			"componentType":5126,
			"count":52,
			"type":"VEC3"
		},
		{
			"bufferView":6,
			"componentType":5126,
			"count":52,
			"type":"VEC2"
		},
		{
			"bufferView":7,
			"componentType":5123,
			"count":102,
			"type":"SCALAR"
		}
	],
	"bufferViews":[
		{
			"buffer":0,
			"byteLength":408,
			"byteOffset":0,
			"target":34962
		},
		{
			"buffer":0,
			"byteLength":408,
			"byteOffset":408,
			"target":34962
		},
		{
			"buffer":0,
			"byteLength":272,
			"byteOffset":816,
			"target":34962
		},
		{
			"buffer":0,
			"byteLength":156,
			"byteOffset":1088,
			"target":34963
		},
		{
			"buffer":0,
			"byteLength":624,
			"byteOffset":1244,
			"target":34962
		},
		{
			"buffer":0,
			"byteLength":624,
			"byteOffset":1868,
			"target":34962
		},
		{
			"buffer":0,
			"byteLength":416,
			"byteOffset":2492,
			"target":34962
		},
		{
			"buffer":0,
			"byteLength":204,
			"byteOffset":2908,
			"target":34963
		}
	],
	"buffers":[
		{
			"byteLength":3112,
			"uri":"ticketCounter.bin"
		}
	]
}
