{
	"asset":{
		"generator":"Khronos glTF Blender I/O v4.1.62",
		"version":"2.0"
	},
	"extensionsUsed":[
		"KHR_materials_specular",
		"KHR_materials_ior"
	],
	"scene":0,
	"scenes":[
		{
			"name":"Scene",
			"nodes":[
				7
			]
		}
	],
	"nodes":[
		{
			"mesh":0,
			"name":"Cube",
			"translation":[
				0,
				-1.220296859741211,
				0
			]
		},
		{
			"mesh":1,
			"name":"Cube.001",
			"translation":[
				0,
				-1.220296859741211,
				0
			]
		},
		{
			"name":"Empty",
			"translation":[
				0,
				-1.220296859741211,
				0
			]
		},
		{
			"mesh":2,
			"name":"EarCup"
		},
		{
			"children":[
				3
			],
			"mesh":3,
			"name":"EarPice",
			"translation":[
				0.4028310179710388,
				0,
				0
			]
		},
		{
			"mesh":4,
			"name":"Joint",
			"translation":[
				0.4119110703468323,
				0,
				0
			]
		},
		{
			"children":[
				4,
				5
			],
			"name":"Empty.001",
			"rotation":[
				0,
				0,
				-0.18074285984039307,
				0.9835304021835327
			],
			"translation":[
				1.6066195964813232,
				-1.5132685899734497,
				0
			]
		},
		{
			"children":[
				0,
				1,
				2,
				6
			],
			"name":"Headphones",
			"rotation":[
				0,
				-0.30070579051971436,
				0,
				0.9537169933319092
			],
			"translation":[
				0,
				1.2202967405319214,
				0
			]
		}
	],
	"animations":[
		{
			"channels":[
				{
					"sampler":0,
					"target":{
						"node":7,
						"path":"rotation"
					}
				}
			],
			"name":"HeadphonesAction",
			"samplers":[
				{
					"input":28,
					"interpolation":"LINEAR",
					"output":29
				}
			]
		}
	],
	"materials":[
		{
			"doubleSided":true,
			"name":"Base",
			"pbrMetallicRoughness":{
				"baseColorFactor":[
					0.2704959213733673,
					0.19120171666145325,
					0.56471186876297,
					1
				],
				"metallicFactor":0,
				"roughnessFactor":0.5
			}
		},
		{
			"doubleSided":true,
			"name":"Cush",
			"pbrMetallicRoughness":{
				"baseColorFactor":[
					0.6444753408432007,
					0.7379112839698792,
					0.7156939506530762,
					1
				],
				"metallicFactor":0
			}
		},
		{
			"doubleSided":true,
			"extensions":{
				"KHR_materials_specular":{
					"specularFactor":0.20000000298023224
				},
				"KHR_materials_ior":{
					"ior":1.4500000476837158
				}
			},
			"name":"Speaker",
			"pbrMetallicRoughness":{
				"baseColorFactor":[
					0.16921615600585938,
					0.16921615600585938,
					0.16921615600585938,
					1
				],
				"metallicFactor":0
			}
		},
		{
			"doubleSided":true,
			"name":"Mesh",
			"pbrMetallicRoughness":{
				"baseColorFactor":[
					0.0003870123764500022,
					0.0003870123764500022,
					0.0003870123764500022,
					0.3999999761581421
				],
				"metallicFactor":0
			}
		}
	],
	"meshes":[
		{
			"name":"Mesh",
			"primitives":[
				{
					"attributes":{
						"POSITION":0,
						"NORMAL":1,
						"TEXCOORD_0":2
					},
					"indices":3,
					"material":0
				}
			]
		},
		{
			"name":"Mesh",
			"primitives":[
				{
					"attributes":{
						"POSITION":4,
						"NORMAL":5,
						"TEXCOORD_0":6
					},
					"indices":7,
					"material":1
				}
			]
		},
		{
			"name":"Circle.002",
			"primitives":[
				{
					"attributes":{
						"POSITION":8,
						"NORMAL":9,
						"TEXCOORD_0":10
					},
					"indices":11,
					"material":1
				}
			]
		},
		{
			"name":"Circle",
			"primitives":[
				{
					"attributes":{
						"POSITION":12,
						"NORMAL":13,
						"TEXCOORD_0":14
					},
					"indices":15,
					"material":0
				},
				{
					"attributes":{
						"POSITION":16,
						"NORMAL":17,
						"TEXCOORD_0":18
					},
					"indices":19,
					"material":2
				},
				{
					"attributes":{
						"POSITION":20,
						"NORMAL":21,
						"TEXCOORD_0":22
					},
					"indices":23,
					"material":3
				}
			]
		},
		{
			"name":"Circle.001",
			"primitives":[
				{
					"attributes":{
						"POSITION":24,
						"NORMAL":25,
						"TEXCOORD_0":26
					},
					"indices":27,
					"material":0
				}
			]
		}
	],
	"accessors":[
		{
			"bufferView":0,
			"componentType":5126,
			"count":1723,
			"max":[
				2.4260904788970947,
				3.707228422164917,
				0.29605162143707275
			],
			"min":[
				-2.4260904788970947,
				1.0395653247833252,
				-0.29450467228889465
			],
			"type":"VEC3"
		},
		{
			"bufferView":1,
			"componentType":5126,
			"count":1723,
			"type":"VEC3"
		},
		{
			"bufferView":2,
			"componentType":5126,
			"count":1723,
			"type":"VEC2"
		},
		{
			"bufferView":3,
			"componentType":5123,
			"count":8160,
			"type":"SCALAR"
		},
		{
			"bufferView":4,
			"componentType":5126,
			"count":57939,
			"max":[
				2.3116371631622314,
				3.584655284881592,
				0.29912763833999634
			],
			"min":[
				-2.31156587600708,
				1.185609221458435,
				-0.3005813956260681
			],
			"type":"VEC3"
		},
		{
			"bufferView":5,
			"componentType":5126,
			"count":57939,
			"type":"VEC3"
		},
		{
			"bufferView":6,
			"componentType":5126,
			"count":57939,
			"type":"VEC2"
		},
		{
			"bufferView":7,
			"componentType":5123,
			"count":308544,
			"type":"SCALAR"
		},
		{
			"bufferView":8,
			"componentType":5126,
			"count":73728,
			"max":[
				-0.2572663128376007,
				1.169496774673462,
				1.169641375541687
			],
			"min":[
				-4.140506267547607,
				-1.964166522026062,
				-1.1695572137832642
			],
			"type":"VEC3"
		},
		{
			"bufferView":9,
			"componentType":5126,
			"count":73728,
			"type":"VEC3"
		},
		{
			"bufferView":10,
			"componentType":5126,
			"count":73728,
			"type":"VEC2"
		},
		{
			"bufferView":11,
			"componentType":5125,
			"count":442368,
			"type":"SCALAR"
		},
		{
			"bufferView":12,
			"componentType":5126,
			"count":3790,
			"max":[
				0.12297192960977554,
				0.9881917834281921,
				0.9882006049156189
			],
			"min":[
				-4.263182163238525,
				-2.06764817237854,
				-0.9882009029388428
			],
			"type":"VEC3"
		},
		{
			"bufferView":13,
			"componentType":5126,
			"count":3790,
			"type":"VEC3"
		},
		{
			"bufferView":14,
			"componentType":5126,
			"count":3790,
			"type":"VEC2"
		},
		{
			"bufferView":15,
			"componentType":5123,
			"count":16680,
			"type":"SCALAR"
		},
		{
			"bufferView":16,
			"componentType":5126,
			"count":1732,
			"max":[
				-0.07656195014715195,
				0.8105745911598206,
				0.8105745315551758
			],
			"min":[
				-3.9812610149383545,
				-1.73432195186615,
				-0.8105747103691101
			],
			"type":"VEC3"
		},
		{
			"bufferView":17,
			"componentType":5126,
			"count":1732,
			"type":"VEC3"
		},
		{
			"bufferView":18,
			"componentType":5126,
			"count":1732,
			"type":"VEC2"
		},
		{
			"bufferView":19,
			"componentType":5123,
			"count":8352,
			"type":"SCALAR"
		},
		{
			"bufferView":20,
			"componentType":5126,
			"count":108,
			"max":[
				-0.4389418065547943,
				0.7779459357261658,
				0.7779457569122314
			],
			"min":[
				-3.89617657661438,
				-1.6996870040893555,
				-0.7779459357261658
			],
			"type":"VEC3"
		},
		{
			"bufferView":21,
			"componentType":5126,
			"count":108,
			"type":"VEC3"
		},
		{
			"bufferView":22,
			"componentType":5126,
			"count":108,
			"type":"VEC2"
		},
		{
			"bufferView":23,
			"componentType":5123,
			"count":288,
			"type":"SCALAR"
		},
		{
			"bufferView":24,
			"componentType":5126,
			"count":3588,
			"max":[
				0.093715600669384,
				1.5168428421020508,
				0.9535905122756958
			],
			"min":[
				-4.5995941162109375,
				-1.5187329053878784,
				-0.9535906910896301
			],
			"type":"VEC3"
		},
		{
			"bufferView":25,
			"componentType":5126,
			"count":3588,
			"type":"VEC3"
		},
		{
			"bufferView":26,
			"componentType":5126,
			"count":3588,
			"type":"VEC2"
		},
		{
			"bufferView":27,
			"componentType":5123,
			"count":21504,
			"type":"SCALAR"
		},
		{
			"bufferView":28,
			"componentType":5126,
			"count":181,
			"max":[
				6
			],
			"min":[
				0
			],
			"type":"SCALAR"
		},
		{
			"bufferView":29,
			"componentType":5126,
			"count":181,
			"type":"VEC4"
		}
	],
	"bufferViews":[
		{
			"buffer":0,
			"byteLength":20676,
			"byteOffset":0,
			"target":34962
		},
		{
			"buffer":0,
			"byteLength":20676,
			"byteOffset":20676,
			"target":34962
		},
		{
			"buffer":0,
			"byteLength":13784,
			"byteOffset":41352,
			"target":34962
		},
		{
			"buffer":0,
			"byteLength":16320,
			"byteOffset":55136,
			"target":34963
		},
		{
			"buffer":0,
			"byteLength":695268,
			"byteOffset":71456,
			"target":34962
		},
		{
			"buffer":0,
			"byteLength":695268,
			"byteOffset":766724,
			"target":34962
		},
		{
			"buffer":0,
			"byteLength":463512,
			"byteOffset":1461992,
			"target":34962
		},
		{
			"buffer":0,
			"byteLength":617088,
			"byteOffset":1925504,
			"target":34963
		},
		{
			"buffer":0,
			"byteLength":884736,
			"byteOffset":2542592,
			"target":34962
		},
		{
			"buffer":0,
			"byteLength":884736,
			"byteOffset":3427328,
			"target":34962
		},
		{
			"buffer":0,
			"byteLength":589824,
			"byteOffset":4312064,
			"target":34962
		},
		{
			"buffer":0,
			"byteLength":1769472,
			"byteOffset":4901888,
			"target":34963
		},
		{
			"buffer":0,
			"byteLength":45480,
			"byteOffset":6671360,
			"target":34962
		},
		{
			"buffer":0,
			"byteLength":45480,
			"byteOffset":6716840,
			"target":34962
		},
		{
			"buffer":0,
			"byteLength":30320,
			"byteOffset":6762320,
			"target":34962
		},
		{
			"buffer":0,
			"byteLength":33360,
			"byteOffset":6792640,
			"target":34963
		},
		{
			"buffer":0,
			"byteLength":20784,
			"byteOffset":6826000,
			"target":34962
		},
		{
			"buffer":0,
			"byteLength":20784,
			"byteOffset":6846784,
			"target":34962
		},
		{
			"buffer":0,
			"byteLength":13856,
			"byteOffset":6867568,
			"target":34962
		},
		{
			"buffer":0,
			"byteLength":16704,
			"byteOffset":6881424,
			"target":34963
		},
		{
			"buffer":0,
			"byteLength":1296,
			"byteOffset":6898128,
			"target":34962
		},
		{
			"buffer":0,
			"byteLength":1296,
			"byteOffset":6899424,
			"target":34962
		},
		{
			"buffer":0,
			"byteLength":864,
			"byteOffset":6900720,
			"target":34962
		},
		{
			"buffer":0,
			"byteLength":576,
			"byteOffset":6901584,
			"target":34963
		},
		{
			"buffer":0,
			"byteLength":43056,
			"byteOffset":6902160,
			"target":34962
		},
		{
			"buffer":0,
			"byteLength":43056,
			"byteOffset":6945216,
			"target":34962
		},
		{
			"buffer":0,
			"byteLength":28704,
			"byteOffset":6988272,
			"target":34962
		},
		{
			"buffer":0,
			"byteLength":43008,
			"byteOffset":7016976,
			"target":34963
		},
		{
			"buffer":0,
			"byteLength":724,
			"byteOffset":7059984
		},
		{
			"buffer":0,
			"byteLength":2896,
			"byteOffset":7060708
		}
	],
	"buffers":[
		{
			"byteLength":7063604,
			"uri":"scene.bin"
		}
	]
}
